<svg xmlns="http://www.w3.org/2000/svg" fill="none" viewBox="0 0 130 130" height="130" width="130">
<rect fill-opacity="0.3" fill="#907EFF" transform="rotate(-90 0 130)" rx="20" height="130" width="130" y="130"></rect>
<g clip-path="url(#clip0_225_3895)">
<path fill="#5236FF" d="M91.3427 79.5358C90.7985 79.5358 90.3537 79.0875 90.3537 78.5302C90.3537 77.9729 90.7946 77.5246 91.3427 77.5246H93.6623C99.926 77.5246 105.022 72.3432 105.022 65.9745C105.022 59.6058 99.926 54.4244 93.6623 54.4244C93.1181 54.4244 92.6733 53.9762 92.6733 53.4189C92.6733 45.0551 85.9806 38.2462 77.7508 38.2462C76.1779 38.2462 74.613 38.5047 73.0917 39.0095C72.8415 39.0903 72.5714 39.0741 72.3371 38.953C72.1027 38.8318 71.924 38.6218 71.8445 38.3714C69.652 31.5747 63.4559 27.0071 56.4256 27.0071C47.4768 27.0071 40.1923 34.4097 40.1923 43.5124C40.1923 44.0657 39.7514 44.518 39.2033 44.518C30.2546 44.518 22.9701 51.9206 22.9701 61.0233C22.9701 70.1261 30.2506 77.5286 39.2033 77.5286C39.7475 77.5286 40.1923 77.9769 40.1923 78.5342C40.1923 79.0915 39.7514 79.5398 39.2033 79.5398C29.1663 79.5358 21 71.2326 21 61.0233C21 50.814 28.6499 43.048 38.2461 42.5351C38.7465 32.7781 46.7102 25 56.4295 25C63.996 25 70.6967 29.7129 73.4015 36.8247C74.8314 36.437 76.2891 36.2391 77.7548 36.2391C86.7512 36.2391 94.131 43.4276 94.6275 52.4496C101.535 52.9544 107.004 58.8264 107.004 65.9745C107.004 73.1226 101.022 79.5358 93.6663 79.5358H91.3467H91.3427Z"></path>
<path fill-opacity="0.45" fill="#907EFF" d="M89.4441 87.0231L84.5427 82.5444C84.1495 82.1971 83.8675 81.4823 83.9151 80.9532V76.107C83.8714 75.582 84.1535 74.8632 84.5467 74.5159L89.4441 70.0251C89.8293 69.6818 89.9366 69.0276 89.6784 68.5752L85.9567 62.0248C85.6985 61.5725 85.0908 61.3383 84.6023 61.5079L78.3306 63.5756C77.8381 63.7452 77.0874 63.6362 76.6624 63.3333L72.5316 60.9102C72.059 60.6881 71.5942 60.0823 71.491 59.5613L70.1207 53.0069C70.0214 52.494 69.5169 52.074 69.0046 52.074H61.5453C61.0289 52.074 60.5285 52.4899 60.4292 53.0028L59.0589 59.5613C58.9596 60.0783 58.4909 60.6881 58.0182 60.9102L53.8914 63.3333C53.4664 63.6362 52.7157 63.7452 52.2232 63.5756L45.9555 61.4998C45.467 61.3302 44.8593 61.5644 44.6011 62.0167L40.8635 68.5954C40.6053 69.0477 40.7126 69.702 41.1018 70.0453L46.0032 74.5239C46.3964 74.8713 46.6784 75.5861 46.6307 76.1111V80.9573C46.6744 81.4863 46.3924 82.2011 45.9992 82.5484L41.1018 87.0392C40.7126 87.3825 40.6093 88.0367 40.8675 88.489L44.5931 95.0435C44.8513 95.4958 45.459 95.7301 45.9476 95.5604L52.2192 93.4927C52.7117 93.3231 53.4624 93.4321 53.8874 93.735L58.0182 96.1581C58.4909 96.3802 58.9596 96.986 59.0589 97.507L60.4292 104.061C60.5285 104.574 61.0329 104.994 61.5453 104.994H69.0006C69.5169 104.994 70.0174 104.574 70.1167 104.061L71.491 97.507C71.5903 96.9901 72.059 96.3802 72.5316 96.1581L76.6584 93.731C77.0834 93.4281 77.8341 93.3191 78.3266 93.4887L84.5943 95.5685C85.0829 95.7381 85.6906 95.5039 85.9488 95.0516L89.6824 88.4729C89.9405 88.0206 89.8333 87.3663 89.4441 87.0231ZM65.2749 87.746C60.2703 87.746 56.211 83.6227 56.211 78.5301C56.211 73.4376 60.2663 69.3183 65.2749 69.3183C70.2835 69.3183 74.3388 73.4416 74.3388 78.5301C74.3388 83.6186 70.2835 87.746 65.2749 87.746Z"></path>
<path fill="#5236FF" d="M69.0046 106H61.5493C60.5682 106 59.6547 105.233 59.4641 104.255L58.0977 97.7129C58.054 97.4949 57.7919 97.1556 57.6052 97.0668L53.3989 94.6033C53.1566 94.4377 52.7317 94.3771 52.541 94.4418L46.2574 96.5135C45.3399 96.8245 44.2317 96.4045 43.7432 95.5443L40.0215 88.9898C39.529 88.1256 39.7236 86.9342 40.4624 86.28L45.3479 81.7973C45.5107 81.6519 45.6736 81.248 45.6537 81.0421V76.107C45.6736 75.8122 45.5147 75.4124 45.3637 75.2751L40.4505 70.7843C39.7236 70.1381 39.529 68.9468 40.0175 68.0866L43.7551 61.5079C44.2437 60.6436 45.3518 60.2196 46.2852 60.5427L52.537 62.6144C52.7436 62.6871 53.1686 62.6225 53.3314 62.5054L57.5297 60.0338C57.7919 59.9046 58.054 59.5654 58.0937 59.3634L59.468 52.7888C59.6547 51.8236 60.5722 51.0603 61.5493 51.0603H69.0086C69.9896 51.0603 70.9032 51.8276 71.0978 52.8049L72.4641 59.3473C72.5078 59.5654 72.77 59.9046 72.9527 59.9934L77.159 62.4569C77.3973 62.6225 77.8223 62.6871 78.0129 62.6185L84.2965 60.5467C85.214 60.2358 86.3222 60.6558 86.8107 61.516L90.5324 68.0704C91.021 68.9347 90.8303 70.122 90.0915 70.7803L85.2061 75.263C85.0432 75.4084 84.8843 75.8162 84.9002 76.0222V80.9572C84.8804 81.2521 85.0392 81.6519 85.1902 81.7892L90.0955 86.2719C90.8303 86.9261 91.021 88.1135 90.5324 88.9737L86.7948 95.5523C86.3063 96.4166 85.1981 96.8406 84.2687 96.5175L78.0129 94.4458C77.8064 94.3731 77.3853 94.4337 77.2185 94.5548L73.0202 97.0304C72.7581 97.1597 72.4959 97.4989 72.4562 97.7049L71.0819 104.275C70.8952 105.241 69.9777 106.004 69.0006 106.004L69.0046 106ZM52.7595 92.4064C53.3632 92.4064 53.9987 92.5841 54.4594 92.9152L58.5148 95.2899C59.1979 95.6089 59.8692 96.4772 60.032 97.3131L61.3984 103.855C61.4143 103.916 61.5016 103.993 61.5533 103.993H69.0086C69.0562 103.993 69.1436 103.916 69.1555 103.868L70.5298 97.301C70.6887 96.4812 71.356 95.6129 72.1186 95.2495L76.166 92.8627C76.7776 92.4185 77.854 92.265 78.6484 92.5396L84.9002 94.6114C84.9598 94.6275 85.0631 94.5872 85.0909 94.5468L88.8245 87.9681C88.8443 87.9277 88.8245 87.8106 88.7927 87.7783L89.4441 87.0231L88.7848 87.7702L83.8874 83.2915C83.2678 82.7382 82.8626 81.7165 82.9341 80.8684V76.1111C82.8626 75.3478 83.2678 74.326 83.8993 73.7647L88.7848 69.282C88.8285 69.2375 88.8483 69.1204 88.8285 69.076L85.1068 62.5256C85.079 62.4852 84.9598 62.4448 84.9241 62.4569L78.6405 64.5287C77.862 64.7992 76.7856 64.6417 76.0984 64.1531L72.0431 61.7785C71.3599 61.4594 70.6887 60.5911 70.5298 59.7552L69.1635 53.2128C69.1476 53.1522 69.0562 53.0755 69.0086 53.0755H61.5533C61.5056 53.0755 61.4182 53.1522 61.4063 53.1967L60.032 59.7673C59.8732 60.5871 59.2059 61.4554 58.4433 61.8188L54.3919 64.2016C53.7763 64.6417 52.6999 64.7992 51.9095 64.5206L45.6577 62.4488C45.6021 62.4327 45.4948 62.4731 45.467 62.5135L41.7294 69.0922C41.7096 69.1325 41.7294 69.2497 41.7612 69.282L46.6705 73.7687C47.2901 74.318 47.6953 75.3437 47.6238 76.1918V80.9532C47.6953 81.7124 47.2901 82.7382 46.6586 83.2996L41.7731 87.7823C41.7255 87.8267 41.7096 87.9438 41.7294 87.9842L45.4511 94.5346C45.475 94.575 45.5822 94.6195 45.6338 94.6033L51.9134 92.5316C52.1716 92.4427 52.4576 92.4023 52.7555 92.4023L52.7595 92.4064ZM65.2789 88.7475C59.7381 88.7475 55.23 84.1638 55.23 78.5301C55.23 72.8964 59.7381 68.3127 65.2789 68.3127C70.8198 68.3127 75.3279 72.8964 75.3279 78.5301C75.3279 84.1638 70.8198 88.7475 65.2789 88.7475ZM65.2789 70.3199C60.8264 70.3199 57.204 74.003 57.204 78.5301C57.204 83.0573 60.8264 86.7404 65.2789 86.7404C69.7315 86.7404 73.3539 83.0573 73.3539 78.5301C73.3539 74.003 69.7315 70.3199 65.2789 70.3199Z"></path>
</g>
<defs>
<clipPath id="clip0_225_3895">
<rect transform="translate(21 25)" fill="white" height="81" width="86"></rect>
</clipPath>
</defs>
</svg>
