<svg xmlns="http://www.w3.org/2000/svg" xmlns:xlink="http://www.w3.org/1999/xlink" xmlns:serif="http://www.serif.com/" width="100%" height="100%" viewBox="0 0 223 201" version="1.1" xml:space="preserve" style="fill-rule:evenodd;clip-rule:evenodd;stroke-linejoin:round;stroke-miterlimit:2;">
    <path d="M26.13,32.795C20.448,34.423 13.885,35.796 6.443,36.913L1,56.585L24.212,58.071L7.92,116.491C6.649,120.792 5.7,124.716 5.075,128.261C4.648,131.82 4.358,134.789 4.206,137.17C3.774,143.915 4.522,149.342 6.45,153.449C8.576,157.57 11.455,160.842 15.084,163.266C18.727,165.491 22.91,167.054 27.633,167.954C32.344,169.052 37.179,169.76 42.139,170.078C44.916,170.256 48.097,170.36 51.681,170.39C55.45,170.632 59.034,170.662 62.432,170.481C66.016,170.512 69.203,170.517 71.993,170.496C74.982,170.488 77.183,170.33 78.597,170.023L84.376,149.775C76.44,149.266 71.016,148.421 68.104,147.239C65.39,146.069 64.16,143.5 64.414,139.532C64.541,137.548 65.017,134.79 65.841,131.257C66.664,127.724 67.719,123.707 69.003,119.208L84.921,61.959L108.43,63.465L113.576,43.774L90.364,42.288L101.548,2.963L70.896,1C65.53,7.031 60.524,12.089 55.88,16.174C51.434,20.272 46.735,23.656 41.783,26.327C37.03,29.011 31.812,31.167 26.13,32.795ZM196.761,168.062C202.443,166.434 209.005,165.062 216.447,163.945L221.891,144.273L198.679,142.786L214.97,84.366C216.242,80.065 217.19,76.142 217.816,72.596C218.243,69.038 218.532,66.068 218.685,63.687C219.117,56.942 218.369,51.516 216.441,47.408C214.314,43.288 211.436,40.016 207.806,37.592C204.164,35.366 199.981,33.804 195.258,32.904C190.547,31.805 185.712,31.097 180.752,30.779C177.974,30.601 174.794,30.497 171.21,30.467C167.44,30.226 163.857,30.195 160.459,30.376C156.875,30.346 153.688,30.341 150.898,30.361C147.909,30.369 145.708,30.527 144.293,30.835L138.514,51.083C146.45,51.591 151.874,52.436 154.787,53.619C157.501,54.789 158.731,57.358 158.476,61.325C158.349,63.309 157.874,66.068 157.05,69.601C156.226,73.134 155.172,77.15 153.888,81.649L137.97,138.898L114.46,137.392L109.315,157.083L132.527,158.57L121.343,197.894L151.995,199.857C157.361,193.826 162.366,188.768 167.011,184.683C171.456,180.585 176.155,177.201 181.107,174.53C185.861,171.846 191.079,169.69 196.761,168.062Z" fill="#ffffff"/>
</svg>