<svg id="Layer_1" data-name="Layer 1" xmlns="http://www.w3.org/2000/svg" viewBox="0 0 512 512"><defs><style>.cls-1{fill:#fff;}.cls-2{fill:#f3b403;}</style></defs><rect class="cls-1" x="49.5" y="22" width="421" height="454"/><path class="cls-2" d="M429,0H83A83.21,83.21,0,0,0,0,83V429a83.21,83.21,0,0,0,83,83H429a83.21,83.21,0,0,0,83-83V83A83.21,83.21,0,0,0,429,0Zm-6.84,151.68a400.48,400.48,0,0,1-9.83,58.15,524,524,0,0,1-19.28,61.89,561.1,561.1,0,0,1-27.21,60.85,473.13,473.13,0,0,1-33.51,55,284.74,284.74,0,0,1-38.68,44.61c-13.81,12.73-28.39,22.47-43.36,28.95a88.18,88.18,0,0,1-35.16,7.54,84.31,84.31,0,0,1-12.86-1,24.66,24.66,0,0,1-17.87-12,47.7,47.7,0,0,1-6.12-18.48,105,105,0,0,1-.45-21.28c.36-5,.85-10.09,1.46-15.19-3.15,4-6.48,8-9.92,11.83a160.57,160.57,0,0,1-17,16.33A85.67,85.67,0,0,1,133.22,441a48.19,48.19,0,0,1-22.49,4.39c-10.45-.52-18.68-5.55-23.19-14.18-3.51-6.73-5.22-15.09-5.22-25.57a184.44,184.44,0,0,1,3.33-32.17c2.12-11.72,4.78-24.68,7.89-38.5s6.5-28.53,10.07-43.81,6.9-30.87,10-46.77,5.58-31.88,7.54-47.84a348.68,348.68,0,0,0,2.69-45.36c-.09-.31-.23-.81-.47-1.56a28.49,28.49,0,0,1-1.27-10.85,21.06,21.06,0,0,1,6.22-13.24c4-4,9.8-6.12,17.81-6.38,14.37-.59,22.31,6.29,26.45,12.17,4.74,6.76,7.72,15.71,8.85,26.62a162,162,0,0,1-.65,34c-1.38,12.39-3.55,25.7-6.45,39.58s-6.28,28.12-10.07,42.54-7.61,28.44-11.5,42.1c-3.79,13.32-7.48,26.26-10.92,38.45-3.38,11.94-6.23,22.46-8.47,31.29q-.86,3.39-1.53,6.39a109.94,109.94,0,0,0,12.91-14.19,258.76,258.76,0,0,0,16.59-24.42c5.6-9.28,11-19.1,16.16-29.21s10.19-20.68,15-31.25,9.09-20.6,12.87-30,7-17.94,9.57-25.61,4.56-14,5.82-18.66l.12-.43.15-.43c2.12-6,7.74-7.93,10.44-8.87a85,85,0,0,1,8.74-2.44A96.85,96.85,0,0,1,251,204.93a89.66,89.66,0,0,1,10.4-.66,26.87,26.87,0,0,1,10.81,1.9,13.84,13.84,0,0,1,7.21,18.57l-.1.21c-.15.38-.89,2.31-3.55,10.47-2.16,6.6-4.8,15.06-7.84,25.17s-6.42,21.61-10,34.21-7.12,25.53-10.5,38.37-6.53,25.61-9.34,37.78c-2.77,12-4.91,22.88-6.37,32.39a172.33,172.33,0,0,0-2.07,19,43.39,43.39,0,0,0,13.45-5.1c8.4-4.74,17.06-11.57,25.71-20.32a238,238,0,0,0,26.58-32.67,416.07,416.07,0,0,0,25.17-42,488.47,488.47,0,0,0,21.73-47.49,434,434,0,0,0,16.27-49.5A370.69,370.69,0,0,0,367.94,177a213.85,213.85,0,0,0,1.21-43.31A110.43,110.43,0,0,0,361,99.18a55,55,0,0,0-17.42-22.69c-6-4.48-8-11.6-5.19-18.15A21,21,0,0,1,347,48.85a39.23,39.23,0,0,1,21.73-5.46l.33,0c15,1.39,27,7.75,35.76,18.88,7.87,10,13.25,23.08,16,38.76C423.4,115.85,423.86,132.88,422.19,151.68Z"/></svg>